                <svg className="bg-accent-content" fill="#fff" viewBox="0 0 800 800" xmlns="http://www.w3.org/2000/svg">
                    <path className="bg-base-100" d="m160 400c0-130 110-240 240-240 140 0 250 110 250 240 0 140-110 250-250 250-130 0-240-110-240-250zm480 0c0-120-110-230-240-230-120 0-230 110-230 230 0 130 110 230 230 230 130 0 230-100 230-230zm-10 0m-430-230v-10h400v10m-400 0m0 480v-10h400v10m-400 0m-40-50v-400h10v400m-10 0m480 0v-400h10v400m-10 0m-470-430h30v-10h-40v40h10m0-30m0 470v-40h-10v50h40v-10m-30 0m470-470v30h10v-40h-50v10m40 0m0 470h-40v10h50v-50h-10m0 40m-440-340h400l-200 320m170-320h-340l170 300"></path>
                </svg>